<svg width="197" height="61" viewBox="0 0 197 61" fill="none" xmlns="http://www.w3.org/2000/svg">
<path d="M48.5938 49H42.1875V39.3438H17.5312V32.8125H42.1875V20.125H25.5312C23.9688 20.125 22.5 20.4271 21.125 21.0312C19.75 21.6146 18.5521 22.4167 17.5312 23.4375C16.5104 24.4583 15.6979 25.6562 15.0938 27.0312C14.5104 28.3854 14.2188 29.8438 14.2188 31.4062V49H7.75V31.4062C7.75 28.9479 8.21875 26.6458 9.15625 24.5C10.0938 22.3542 11.3646 20.4792 12.9688 18.875C14.5729 17.2708 16.4583 16.0104 18.625 15.0938C20.7917 14.1562 23.0938 13.6875 25.5312 13.6875H48.5938V49ZM94.5625 49H57.8125V13.6875H94.5625V20.125H64.2812V42.5312H94.5625V49ZM90.4688 34.4062H67.3125V27.9375H90.4688V34.4062ZM142.875 31.3438C142.875 33.7812 142.49 36.0729 141.719 38.2188C140.948 40.3438 139.844 42.2083 138.406 43.8125C136.99 45.4167 135.281 46.6875 133.281 47.625C131.302 48.5417 129.094 49 126.656 49H115.531C113.094 49 110.875 48.5417 108.875 47.625C106.875 46.6875 105.156 45.4167 103.719 43.8125C102.302 42.2083 101.208 40.3438 100.438 38.2188C99.6667 36.0729 99.2812 33.7812 99.2812 31.3438C99.2812 28.9271 99.6667 26.6562 100.438 24.5312C101.208 22.4062 102.302 20.5521 103.719 18.9688C105.156 17.3646 106.875 16.1042 108.875 15.1875C110.875 14.2708 113.094 13.8125 115.531 13.8125H126.656C129.094 13.8125 131.302 14.2708 133.281 15.1875C135.281 16.1042 136.99 17.3646 138.406 18.9688C139.844 20.5521 140.948 22.4062 141.719 24.5312C142.49 26.6562 142.875 28.9271 142.875 31.3438ZM136.469 31.3438C136.469 29.8021 136.24 28.3542 135.781 27C135.344 25.625 134.698 24.4375 133.844 23.4375C133.01 22.4167 131.99 21.6146 130.781 21.0312C129.573 20.4271 128.198 20.125 126.656 20.125H115.531C113.99 20.125 112.604 20.4271 111.375 21.0312C110.167 21.6146 109.135 22.4167 108.281 23.4375C107.448 24.4375 106.802 25.625 106.344 27C105.906 28.3542 105.688 29.8021 105.688 31.3438C105.688 32.8854 105.906 34.3438 106.344 35.7188C106.802 37.0729 107.448 38.2604 108.281 39.2812C109.135 40.3021 110.167 41.1146 111.375 41.7188C112.604 42.3021 113.99 42.5938 115.531 42.5938H126.656C128.198 42.5938 129.573 42.3021 130.781 41.7188C131.99 41.1146 133.01 40.3021 133.844 39.2812C134.698 38.2604 135.344 37.0729 135.781 35.7188C136.24 34.3438 136.469 32.8854 136.469 31.3438ZM182.281 49C182.281 46.6667 181.885 44.4062 181.094 42.2188C180.323 40.0104 179.271 37.9375 177.938 36C176.625 34.0417 175.094 32.2188 173.344 30.5312C171.615 28.8438 169.792 27.3438 167.875 26.0312C165.958 24.6979 164 23.5833 162 22.6875C160.021 21.7708 158.135 21.0938 156.344 20.6562V49H149.938V13.8125H153.406V13.875C155.698 14 158.135 14.5104 160.719 15.4062C163.323 16.2812 165.906 17.4792 168.469 19C171.052 20.5 173.531 22.2917 175.906 24.375C178.302 26.4375 180.427 28.7188 182.281 31.2188V13.8125H188.656V49H182.281Z" fill="#A737FF"/>
<path d="M44.5938 49H38.1875V39.3438H13.5312V32.8125H38.1875V20.125H21.5312C19.9688 20.125 18.5 20.4271 17.125 21.0312C15.75 21.6146 14.5521 22.4167 13.5312 23.4375C12.5104 24.4583 11.6979 25.6562 11.0938 27.0312C10.5104 28.3854 10.2188 29.8438 10.2188 31.4062V49H3.75V31.4062C3.75 28.9479 4.21875 26.6458 5.15625 24.5C6.09375 22.3542 7.36458 20.4792 8.96875 18.875C10.5729 17.2708 12.4583 16.0104 14.625 15.0938C16.7917 14.1562 19.0938 13.6875 21.5312 13.6875H44.5938V49ZM90.5625 49H53.8125V13.6875H90.5625V20.125H60.2812V42.5312H90.5625V49ZM86.4688 34.4062H63.3125V27.9375H86.4688V34.4062ZM138.875 31.3438C138.875 33.7812 138.49 36.0729 137.719 38.2188C136.948 40.3438 135.844 42.2083 134.406 43.8125C132.99 45.4167 131.281 46.6875 129.281 47.625C127.302 48.5417 125.094 49 122.656 49H111.531C109.094 49 106.875 48.5417 104.875 47.625C102.875 46.6875 101.156 45.4167 99.7188 43.8125C98.3021 42.2083 97.2083 40.3438 96.4375 38.2188C95.6667 36.0729 95.2812 33.7812 95.2812 31.3438C95.2812 28.9271 95.6667 26.6562 96.4375 24.5312C97.2083 22.4062 98.3021 20.5521 99.7188 18.9688C101.156 17.3646 102.875 16.1042 104.875 15.1875C106.875 14.2708 109.094 13.8125 111.531 13.8125H122.656C125.094 13.8125 127.302 14.2708 129.281 15.1875C131.281 16.1042 132.99 17.3646 134.406 18.9688C135.844 20.5521 136.948 22.4062 137.719 24.5312C138.49 26.6562 138.875 28.9271 138.875 31.3438ZM132.469 31.3438C132.469 29.8021 132.24 28.3542 131.781 27C131.344 25.625 130.698 24.4375 129.844 23.4375C129.01 22.4167 127.99 21.6146 126.781 21.0312C125.573 20.4271 124.198 20.125 122.656 20.125H111.531C109.99 20.125 108.604 20.4271 107.375 21.0312C106.167 21.6146 105.135 22.4167 104.281 23.4375C103.448 24.4375 102.802 25.625 102.344 27C101.906 28.3542 101.688 29.8021 101.688 31.3438C101.688 32.8854 101.906 34.3438 102.344 35.7188C102.802 37.0729 103.448 38.2604 104.281 39.2812C105.135 40.3021 106.167 41.1146 107.375 41.7188C108.604 42.3021 109.99 42.5938 111.531 42.5938H122.656C124.198 42.5938 125.573 42.3021 126.781 41.7188C127.99 41.1146 129.01 40.3021 129.844 39.2812C130.698 38.2604 131.344 37.0729 131.781 35.7188C132.24 34.3438 132.469 32.8854 132.469 31.3438ZM178.281 49C178.281 46.6667 177.885 44.4062 177.094 42.2188C176.323 40.0104 175.271 37.9375 173.938 36C172.625 34.0417 171.094 32.2188 169.344 30.5312C167.615 28.8438 165.792 27.3438 163.875 26.0312C161.958 24.6979 160 23.5833 158 22.6875C156.021 21.7708 154.135 21.0938 152.344 20.6562V49H145.938V13.8125H149.406V13.875C151.698 14 154.135 14.5104 156.719 15.4062C159.323 16.2812 161.906 17.4792 164.469 19C167.052 20.5 169.531 22.2917 171.906 24.375C174.302 26.4375 176.427 28.7188 178.281 31.2188V13.8125H184.656V49H178.281Z" fill="white"/>
</svg>
